<svg width="91" height="92" viewBox="0 0 91 92" fill="none" xmlns="http://www.w3.org/2000/svg">
<path d="M29.6402 16.0965C35.9945 15.5319 41.1596 14.9445 45.5002 14.2362C58.6828 12.0847 64.0102 8.42414 70.0807 0.961487C71.0937 -0.264693 72.9601 -0.318191 74.0263 0.801705L90.2073 17.1512C91.1154 18.0592 91.2686 19.4999 90.534 20.5534C88.4988 23.473 86.2433 26.1653 83.7956 28.5897C78.9526 34.023 73.9136 37.8944 69.1682 40.5188C66.1741 42.1746 62.7961 43.0113 59.3746 43.0113H43.5451C38.7063 43.0113 34.6203 39.7885 33.3162 35.3724C32.8959 33.9486 33.8613 32.446 35.3429 32.3529C35.4005 32.3493 35.4588 32.3474 35.5176 32.3474H58.7687C60.2188 32.3474 61.4524 31.2148 61.4949 29.7654C61.5399 28.2328 60.3512 27.0154 58.8302 27.0154H32.1702C31.3702 27.0154 30.6241 27.3886 30.0907 27.9751C29.4082 28.6813 26.1587 33.503 19.9644 38.7159C15.9505 42.0939 6.31147 48.3433 2.6667 48.3433C0.37394 48.3433 -0.85224 45.624 0.693859 43.918L24.8656 17.258C25.2923 16.7246 25.9854 16.4047 26.6783 16.3514C27.6935 16.2666 28.6804 16.1818 29.6402 16.0965V16.0965Z" fill="#7619E0"/>
<path d="M61.3596 74.9914C55.0052 75.5561 49.8401 76.1435 45.4995 76.8518C32.3169 79.0032 26.9895 82.6638 20.9191 90.1265C19.906 91.3527 18.0396 91.4062 16.9734 90.2863L0.792407 73.9368C-0.115631 73.0287 -0.268837 71.588 0.465733 70.5346C2.50095 67.615 4.75639 64.9227 7.20413 62.4982C12.0472 57.0649 17.0861 53.1936 21.8316 50.5692C24.8256 48.9134 28.2036 48.0766 31.6252 48.0766H47.4548C52.2936 48.0766 56.3797 51.2995 57.6837 55.7156C58.104 57.1394 57.1386 58.642 55.657 58.7351C55.5994 58.7386 55.5411 58.7406 55.4823 58.7406H32.2312C30.7811 58.7406 29.5475 59.8731 29.505 61.3225C29.46 62.8551 30.6487 64.0726 32.1697 64.0726H58.8297C59.6297 64.0726 60.3758 63.6994 60.9092 63.1128C61.5917 62.4067 64.8412 57.585 71.0355 52.3721C75.0494 48.9941 84.6884 42.7446 88.3332 42.7446C90.626 42.7446 91.8521 45.4639 90.306 47.17L66.1343 73.83C65.7076 74.3633 65.0145 74.6833 64.3216 74.7366C63.3063 74.8214 62.3193 74.9061 61.3596 74.9914V74.9914Z" fill="#7619E0"/>
</svg>
