<svg width="99" height="85" viewBox="0 0 99 85" fill="none" xmlns="http://www.w3.org/2000/svg">
<path d="M29.9977 65.9746L25.314 70.1213C26.8053 71.7992 28.4255 73.3579 30.1601 74.7831L34.1194 69.9433C32.6426 68.7316 31.2644 67.4045 29.9977 65.9746Z" fill="#D95765"/>
<path d="M23.8431 56.314L18.104 58.7776C18.9914 60.8455 20.045 62.8378 21.2546 64.7353L26.5222 61.388C25.4949 59.7709 24.599 58.0743 23.8431 56.314Z" fill="#D95765"/>
<path d="M77.9829 5.68604C71.5623 1.96345 64.2727 0.00195155 56.851 0C35.742 0.033957 17.9082 15.6665 15.1097 36.5892L4.41519 25.8947L0 30.3099L17.82 48.1299L35.64 30.3099L31.2248 25.8947L21.567 35.5401C25.2365 16.0718 43.9934 3.26455 63.4617 6.93405C82.9299 10.6036 95.7372 29.3605 92.0677 48.8286C88.3982 68.2966 69.6412 81.1043 50.173 77.4346C46.1822 76.6824 42.3482 75.258 38.8343 73.2219L35.6962 78.6207C55.8366 90.2978 81.6298 83.437 93.3069 63.2966C104.984 43.1564 98.1233 17.3631 77.9829 5.68604Z" fill="#D95765"/>
<path d="M52.167 14.0508V48.3981L65.9059 58.7022L69.6529 53.7063L58.412 45.2756V14.0508H52.167Z" fill="#D95765"/>
</svg>
