<svg width="47" height="45" viewBox="0 0 47 45" fill="none" xmlns="http://www.w3.org/2000/svg">
<path d="M35.6188 33.8247C32.611 33.8247 30.1309 36.2521 30.1309 39.3126C30.1309 42.3205 32.5582 44.8006 35.6188 44.8006C38.6266 44.8006 41.1067 42.3732 41.1067 39.3126C41.054 36.3048 38.6266 33.8247 35.6188 33.8247Z" fill="#D78F3A"/>
<path d="M45.2755 7.65145C45.1699 7.65145 45.0116 7.59868 44.8533 7.59868H11.6091L11.0814 4.06318C10.7648 1.74136 8.75959 0 6.385 0H2.11074C0.949835 0 0 0.949835 0 2.11074C0 3.27165 0.949835 4.22149 2.11074 4.22149H6.385C6.64885 4.22149 6.85992 4.43256 6.91269 4.69641L10.1843 26.9648C10.6065 29.7615 13.0338 31.8722 15.8834 31.8722H37.8351C40.5791 31.8722 42.9536 29.9198 43.5341 27.2286L46.9641 10.0788C47.1751 8.97066 46.4364 7.86252 45.2755 7.65145Z" fill="#D78F3A"/>
<path d="M22.1628 39.0488C22.0572 36.1465 19.6299 33.8247 16.7276 33.8247C13.667 33.983 11.3452 36.5159 11.4507 39.5237C11.5563 42.426 13.9309 44.7478 16.8331 44.7478H16.9387C19.9465 44.5895 22.3211 42.0566 22.1628 39.0488Z" fill="#D78F3A"/>
</svg>
