<svg width="40" height="40" viewBox="0 0 40 40" fill="none" xmlns="http://www.w3.org/2000/svg">
<path d="M18.6168 35.9188C17.3269 35.9174 16.1979 35.0554 15.8602 33.8139C15.8487 33.7709 15.8487 33.7282 15.8396 33.6848L7.98564 29.4528C7.77292 29.3313 7.53199 29.2674 7.28689 29.2681C7.19533 29.2681 7.10377 29.2764 7.01359 29.2934C6.89 29.3149 6.76989 29.3538 6.65709 29.4087C6.4005 29.5302 6.18673 29.7267 6.04468 29.9725C5.92039 30.1891 5.85459 30.4339 5.85355 30.6835C5.85007 31.1921 6.12058 31.6635 6.56239 31.9177L19.5614 39.6741C19.9019 39.8866 20.2956 39.9994 20.6974 39.9998H30.7437C31.0121 39.9994 31.2781 39.9487 31.5281 39.8505L34.1462 38.8194V31.1598L31.597 29.6378C31.2652 29.4396 30.8854 29.3347 30.4983 29.3347H27.7653C27.3301 29.3347 26.8966 29.3917 26.4764 29.5038L18.2461 31.6996C17.6685 31.8593 17.2503 32.3586 17.1957 32.9536V33.1862C17.2006 33.2751 17.2141 33.3633 17.2371 33.4494C17.4067 34.0691 17.9724 34.4985 18.6168 34.4968C18.7035 34.4895 19.1231 34.4041 19.4482 34.3295L26.8322 32.3593L27.1999 33.733L19.7919 35.7095C19.4068 35.8126 19.0137 35.8827 18.6168 35.9188Z" fill="#0074AC"/>
<path d="M35.6099 28.7803H40.0001V39.9998H35.6099V28.7803Z" fill="#0074AC"/>
<path d="M0 0H4.39024V12.6829H0V0Z" fill="#0074AC"/>
<path d="M8.25506 11.1363C9.2156 11.7777 10.3322 12.1436 11.4841 12.1951V8.77548C10.9642 8.58473 10.4782 8.31036 10.0456 7.96307L9.63316 7.62684L10.5198 6.52727L10.9281 6.8597C12.3227 7.98069 14.3111 7.95097 15.6721 6.78921L16.1645 6.36452L20.3171 10.5399C20.8697 11.0928 21.7632 11.0911 22.3134 10.5358C22.8633 9.98009 22.8616 9.08164 22.3089 8.52875L17.3423 3.52921L18.3372 2.52882L20.0456 4.24624H25.8535L23.0733 1.45067C22.1515 0.518704 20.8968 -0.00378055 19.5895 2.05961e-05H10.7408C10.4133 2.05961e-05 10.0902 0.0770802 9.79709 0.224288L8.21897 1.01769C7.69144 1.28204 7.10652 1.40955 6.51714 1.38847L5.85352 1.36463V10.6156H7.47218L8.25506 11.1363Z" fill="#0074AC"/>
<path d="M12.6826 9.27265V21.4633H39.9997V5.85352H21.427L22.8647 7.27258H34.9676V7.98212C34.9676 9.54947 36.2551 10.8203 37.8431 10.8203H38.562V16.4965H37.8431C36.2551 16.4965 34.9676 17.7673 34.9676 19.3347V20.0442H17.7147V19.3347C17.7147 17.7673 16.4272 16.4965 14.8392 16.4965H14.1204V10.8203H14.8392C15.7505 10.8196 16.6073 10.3917 17.1475 9.66726L15.921 8.45676C14.961 9.07102 13.8234 9.35788 12.6826 9.27265Z" fill="#0074AC"/>
<path d="M21.3135 12.5916C20.5562 12.5933 19.8292 12.303 19.2916 11.7838L18.2121 10.7314C17.5571 11.5146 16.6324 12.039 15.6099 12.2067V15.1099C17.41 15.4097 18.8199 16.783 19.1277 18.5364H33.5554C33.8632 16.783 35.2731 15.4097 37.0733 15.1099V12.2067C35.2731 11.907 33.8632 10.5337 33.5554 8.78027H23.9748C24.3168 9.60202 24.2295 10.5343 23.7404 11.2819C25.0525 9.92833 27.2257 9.81876 28.6745 11.0335C30.1235 12.2483 30.3359 14.3576 29.1569 15.8231C27.9782 17.289 25.8245 17.5928 24.2668 16.5132C22.7095 15.4338 22.2987 13.3524 23.3338 11.7872C22.7947 12.303 22.0691 12.5919 21.3135 12.5916Z" fill="#0074AC"/>
</svg>
