<svg width="78" height="78" viewBox="0 0 78 78" fill="none" xmlns="http://www.w3.org/2000/svg">
<path d="M68.385 0H39.0525C33.742 0 29.4375 4.30928 29.4375 9.64313V53.77C29.4375 55.6422 31.5781 56.7371 33.0888 55.601L42.2575 48.7044H68.385C73.6955 48.7044 78 44.3951 78 39.0613V9.64313C78 4.31703 73.7033 0 68.385 0V0ZM51.4364 36.4471H41.4969C40.2364 36.4471 39.2148 35.4225 39.2148 34.1583C39.2148 32.8942 40.2364 31.8696 41.4969 31.8696H51.4364C52.6969 31.8696 53.7185 32.8942 53.7185 34.1583C53.7185 35.4225 52.6969 36.4471 51.4364 36.4471ZM65.9406 26.6412H41.4969C40.2364 26.6412 39.2148 25.6161 39.2148 24.3525C39.2148 23.0883 40.2364 22.0638 41.4969 22.0638H65.9406C67.2005 22.0638 68.2227 23.0883 68.2227 24.3525C68.2227 25.6161 67.2011 26.6412 65.9406 26.6412V26.6412ZM65.9406 16.8348H41.4969C40.2364 16.8348 39.2148 15.8102 39.2148 14.5461C39.2148 13.2825 40.2364 12.2573 41.4969 12.2573H65.9406C67.2005 12.2573 68.2227 13.2825 68.2227 14.5461C68.2227 15.8102 67.2011 16.8348 65.9406 16.8348V16.8348Z" fill="#0074AC"/>
<path d="M25.3125 47.5315C25.3125 53.4857 20.4855 58.3125 14.5313 58.3125C8.57697 58.3125 3.75 53.4857 3.75 47.5315C3.75 41.5768 8.57697 36.75 14.5313 36.75C20.4855 36.75 25.3125 41.5768 25.3125 47.5315Z" fill="#0074AC"/>
<path d="M14.531 58.3125C6.50603 58.3125 0 64.8169 0 72.8397V75.7142C0 76.9768 1.02351 78 2.28637 78H26.7761C28.0384 78 29.0625 76.9768 29.0625 75.7142V72.8397C29.0625 64.8169 22.5565 58.3125 14.531 58.3125V58.3125Z" fill="#0074AC"/>
</svg>
